<?xml version="1.0" encoding="UTF-8" standalone="no"?>
<!-- Created with Inkscape (http://www.inkscape.org/) -->

<svg
   xmlns:dc="http://purl.org/dc/elements/1.1/"
   xmlns:cc="http://creativecommons.org/ns#"
   xmlns:rdf="http://www.w3.org/1999/02/22-rdf-syntax-ns#"
   xmlns:svg="http://www.w3.org/2000/svg"
   xmlns="http://www.w3.org/2000/svg"
   xmlns:sodipodi="http://sodipodi.sourceforge.net/DTD/sodipodi-0.dtd"
   xmlns:inkscape="http://www.inkscape.org/namespaces/inkscape"
   width="744.09448"
   height="1052.3622"
   id="svg2"
   version="1.1"
   inkscape:version="0.91pre0 r13343"
   viewBox="0 0 744.09448 1052.3622"
   sodipodi:docname="logo.svg">
  <defs
     id="defs4" />
  <sodipodi:namedview
     id="base"
     pagecolor="#ffffff"
     bordercolor="#666666"
     borderopacity="1.0"
     inkscape:pageopacity="0.0"
     inkscape:pageshadow="2"
     inkscape:zoom="0.98994949"
     inkscape:cx="143.24349"
     inkscape:cy="604.79866"
     inkscape:document-units="px"
     inkscape:current-layer="layer1"
     showgrid="false"
     inkscape:window-width="1366"
     inkscape:window-height="695"
     inkscape:window-x="0"
     inkscape:window-y="27"
     inkscape:window-maximized="1" />
  <metadata
     id="metadata7">
    <rdf:RDF>
      <cc:Work
         rdf:about="">
        <dc:format>image/svg+xml</dc:format>
        <dc:type
           rdf:resource="http://purl.org/dc/dcmitype/StillImage" />
        <dc:title></dc:title>
      </cc:Work>
    </rdf:RDF>
  </metadata>
  <g
     inkscape:label="Layer 1"
     inkscape:groupmode="layer"
     id="layer1">
    <text
       xml:space="preserve"
       style="font-style:normal;font-weight:normal;font-size:75.31776428px;line-height:125%;font-family:sans-serif;text-align:center;letter-spacing:0px;word-spacing:0px;text-anchor:middle;fill:#000000;fill-opacity:1;stroke:none;stroke-width:1px;stroke-linecap:butt;stroke-linejoin:miter;stroke-opacity:1"
       x="236.20869"
       y="383.82565"
       id="text4101"
       sodipodi:linespacing="125%"
       inkscape:export-xdpi="43.25"
       inkscape:export-ydpi="43.25"><tspan
         sodipodi:role="line"
         id="tspan4103"
         x="236.20869"
         y="383.82565"
         style="font-style:italic;font-variant:normal;font-weight:normal;font-stretch:normal;font-family:Titillium;-inkscape-font-specification:Titillium Italic">Jazz Hands</tspan></text>
    <g
       transform="matrix(0.1888809,-0.17400035,0.17400035,0.1888809,-77.56738,346.60452)"
       id="layer1-7"
       inkscape:export-xdpi="43.25"
       inkscape:export-ydpi="43.25">
      <path
         d="M 286.58534,473.70955 C 280.40049,454.17262 270.3925,435.71627 268.7793,414.985 c -0.97065,-31.476 -26.126,-53.28 -45.837,-74.766 -18.372,-14.325 9.7198,-19.411 17.261,-5.768 14.419,10.286 26.205,24.919 42.509,32.178 2.5557,-13.586 -9.0047,-29.433 -12.611,-43.493 -4.5549,-14.074 -7.9836,-28.475 -11.186,-42.907 15.235,-12.163 28.304,9.3982 30.077,22.972 5.0065,15.535 11.411,30.583 16.539,46.062 17.634,13.195 10.501,-20.198 9.8514,-29.923 -1.009,-17.393 -2.9663,-34.916 -1.9459,-52.315 11.192,-19.331 28.872,9.094 25.368,22.629 2.437,19.15 1.089,38.671 3.6607,57.725 15.672,-0.0675 15.779,-29.667 17.95,-42.997 -4.3678,-15.457 10.415,-39.715 23.796,-19.68 4.4331,17.826 0.63973,36.81 -1.9615,54.766 -5.3056,16.39 -9.8744,36.185 -1.7475,52.206 9.2723,18.796 28.345,13.44 40.317,1.2901 13.304,-9.4306 34.254,-18.99 48.054,-5.2292 6.6695,16.5 -28.467,10.25 -33.16,26.737 -16.276,23.528 -44.679,32.661 -64.932,51.815 0,0 -33.5623,32.94614 -84.19616,7.42265 z"
         id="path2868"
         inkscape:connector-curvature="0"
         sodipodi:nodetypes="cccccccccccccccccccccc" />
    </g>
    <g
       id="g4116"
       transform="matrix(-0.19454344,-0.16764536,-0.16764536,0.19454344,567.99747,346.38384)"
       inkscape:export-xdpi="43.25"
       inkscape:export-ydpi="43.25">
      <path
         sodipodi:nodetypes="cccccccccccccccccccccc"
         inkscape:connector-curvature="0"
         id="path4118"
         d="M 286.58534,473.70955 C 280.40049,454.17262 270.3925,435.71627 268.7793,414.985 c -0.97065,-31.476 -26.126,-53.28 -45.837,-74.766 -18.372,-14.325 9.7198,-19.411 17.261,-5.768 14.419,10.286 26.205,24.919 42.509,32.178 2.5557,-13.586 -9.0047,-29.433 -12.611,-43.493 -4.5549,-14.074 -7.9836,-28.475 -11.186,-42.907 15.235,-12.163 28.304,9.3982 30.077,22.972 5.0065,15.535 11.411,30.583 16.539,46.062 17.634,13.195 10.501,-20.198 9.8514,-29.923 -1.009,-17.393 -2.9663,-34.916 -1.9459,-52.315 11.192,-19.331 28.872,9.094 25.368,22.629 2.437,19.15 1.089,38.671 3.6607,57.725 15.672,-0.0675 15.779,-29.667 17.95,-42.997 -4.3678,-15.457 10.415,-39.715 23.796,-19.68 4.4331,17.826 0.63973,36.81 -1.9615,54.766 -5.3056,16.39 -9.8744,36.185 -1.7475,52.206 9.2723,18.796 28.345,13.44 40.317,1.2901 13.304,-9.4306 34.254,-18.99 48.054,-5.2292 6.6695,16.5 -28.467,10.25 -33.16,26.737 -16.276,23.528 -44.679,32.661 -64.932,51.815 0,0 -33.5623,32.94614 -84.19616,7.42265 z" />
    </g>
  </g>
</svg>
